<?xml version="1.0" encoding="UTF-8" standalone="no"?>
<!-- Created with Inkscape (http://www.inkscape.org/) -->

<svg
   width="32mm"
   height="32mm"
   viewBox="0 0 32 32"
   version="1.1"
   id="svg5"
   xml:space="preserve"
   sodipodi:docname="Nytt dokument 1.2022_10_25_17_22_44.0.svg"
   inkscape:version="1.2 (dc2aedaf03, 2022-05-15)"
   xmlns:inkscape="http://www.inkscape.org/namespaces/inkscape"
   xmlns:sodipodi="http://sodipodi.sourceforge.net/DTD/sodipodi-0.dtd"
   xmlns="http://www.w3.org/2000/svg"
   xmlns:svg="http://www.w3.org/2000/svg"><sodipodi:namedview
     id="namedview7"
     pagecolor="#505050"
     bordercolor="#ffffff"
     borderopacity="1"
     inkscape:showpageshadow="0"
     inkscape:pageopacity="0"
     inkscape:pagecheckerboard="1"
     inkscape:deskcolor="#505050"
     inkscape:document-units="mm"
     showgrid="false"
     inkscape:zoom="1.951302"
     inkscape:cx="48.429202"
     inkscape:cy="60.472443"
     inkscape:window-width="1680"
     inkscape:window-height="987"
     inkscape:window-x="-8"
     inkscape:window-y="-8"
     inkscape:window-maximized="1"
     inkscape:current-layer="svg5"><inkscape:page
       x="0"
       y="0"
       width="32"
       height="32"
       id="page552" /><inkscape:page
       x="123.08825"
       y="-135.15359"
       width="187.31549"
       height="194.72839"
       id="page554" /></sodipodi:namedview><defs
     id="defs2"><clipPath
       clipPathUnits="userSpaceOnUse"
       id="clipPath1439"><path
         d="M 3.3661419e-6,551.986 H 530.97301 V 2.9527559e-6 H 3.3661419e-6 Z"
         id="path1441"
         style="stroke-width:0.999998" /></clipPath><clipPath
       clipPathUnits="userSpaceOnUse"
       id="clipPath1471"><path
         d="M 3.3661419e-6,551.986 H 530.97301 V 2.9527559e-6 H 3.3661419e-6 Z"
         id="path1473"
         style="stroke-width:0.999998" /></clipPath><clipPath
       clipPathUnits="userSpaceOnUse"
       id="clipPath1475"><path
         d="M 3.3661419e-6,551.986 H 530.97301 V 2.9527559e-6 H 3.3661419e-6 Z"
         id="path1477"
         style="stroke-width:0.999998" /></clipPath><clipPath
       clipPathUnits="userSpaceOnUse"
       id="clipPath1541"><path
         d="m -128.8295,497.88251 h 530.97301 v -551.986 H -128.8295 Z"
         id="path1543"
         style="stroke-width:0.999998" /></clipPath><clipPath
       clipPathUnits="userSpaceOnUse"
       id="clipPath1547"><path
         d="m -138.31591,498.3024 h 530.973 V -53.683594 h -530.973 z"
         id="path1549"
         style="stroke-width:0.999998" /></clipPath><clipPath
       clipPathUnits="userSpaceOnUse"
       id="clipPath1553"><path
         d="m -158.15718,495.60909 h 530.973 V -56.376904 h -530.973 z"
         id="path1555"
         style="stroke-width:0.999998" /></clipPath><clipPath
       clipPathUnits="userSpaceOnUse"
       id="clipPath1559"><path
         d="M -113.8417,496.10031 H 417.13131 V -55.885688 H -113.8417 Z"
         id="path1561"
         style="stroke-width:0.999998" /></clipPath><clipPath
       clipPathUnits="userSpaceOnUse"
       id="clipPath1565"><path
         d="m -365.35689,481.69889 h 530.973 V -70.287105 h -530.973 z"
         id="path1567"
         style="stroke-width:0.999998" /></clipPath><clipPath
       clipPathUnits="userSpaceOnUse"
       id="clipPath1571"><path
         d="M -176.33149,498.3024 H 354.64152 V -53.683594 h -530.97301 z"
         id="path1573"
         style="stroke-width:0.999998" /></clipPath><clipPath
       clipPathUnits="userSpaceOnUse"
       id="clipPath1577"><path
         d="M -348.3647,481.69889 H 182.60831 V -70.287105 H -348.3647 Z"
         id="path1579"
         style="stroke-width:0.999998" /></clipPath><clipPath
       clipPathUnits="userSpaceOnUse"
       id="clipPath1583"><path
         d="m -323.3276,500.2087 h 530.973 V -51.777294 h -530.973 z"
         id="path1585"
         style="stroke-width:0.999998" /></clipPath><clipPath
       clipPathUnits="userSpaceOnUse"
       id="clipPath1589"><path
         d="m -178.23291,496.10031 h 530.973 V -55.885688 h -530.973 z"
         id="path1591"
         style="stroke-width:0.999998" /></clipPath><clipPath
       clipPathUnits="userSpaceOnUse"
       id="clipPath1595"><path
         d="m -330.24561,496.09929 h 530.973 V -55.886709 h -530.973 z"
         id="path1597"
         style="stroke-width:0.999998" /></clipPath><clipPath
       clipPathUnits="userSpaceOnUse"
       id="clipPath1601"><path
         d="m -339.13619,502.30339 h 530.973 V -49.682605 h -530.973 z"
         id="path1603"
         style="stroke-width:0.999998" /></clipPath><clipPath
       clipPathUnits="userSpaceOnUse"
       id="clipPath1607"><path
         d="M -106.9238,500.2106 H 424.04921 V -51.775395 H -106.9238 Z"
         id="path1609"
         style="stroke-width:0.999998" /></clipPath><clipPath
       clipPathUnits="userSpaceOnUse"
       id="clipPath1613"><path
         d="M -335.63331,479.33559 H 195.3397 V -72.650406 h -530.97301 z"
         id="path1615"
         style="stroke-width:0.999998" /></clipPath><clipPath
       clipPathUnits="userSpaceOnUse"
       id="clipPath1619"><path
         d="M -343.21721,495.60711 H 187.7558 V -56.378888 h -530.97301 z"
         id="path1621"
         style="stroke-width:0.999998" /></clipPath><clipPath
       clipPathUnits="userSpaceOnUse"
       id="clipPath1625"><path
         d="m -140.21719,496.10031 h 530.973 V -55.885688 h -530.973 z"
         id="path1627"
         style="stroke-width:0.999998" /></clipPath><clipPath
       clipPathUnits="userSpaceOnUse"
       id="clipPath1631"><path
         d="M -122.7333,502.30441 H 408.23971 V -49.681584 H -122.7333 Z"
         id="path1633"
         style="stroke-width:0.999998" /></clipPath><clipPath
       clipPathUnits="userSpaceOnUse"
       id="clipPath1637"><path
         d="m -344.3334,484.90989 h 530.973 V -67.076104 h -530.973 z"
         id="path1639"
         style="stroke-width:0.999998" /></clipPath><clipPath
       clipPathUnits="userSpaceOnUse"
       id="clipPath1643"><path
         d="M -362.13419,483.5231 H 168.83882 V -68.462897 h -530.97301 z"
         id="path1645"
         style="stroke-width:0.999998" /></clipPath><clipPath
       clipPathUnits="userSpaceOnUse"
       id="clipPath1649"><path
         d="M -350.8432,499.18919 H 180.12981 V -52.796803 H -350.8432 Z"
         id="path1651"
         style="stroke-width:0.999998" /></clipPath><clipPath
       clipPathUnits="userSpaceOnUse"
       id="clipPath1655"><path
         d="m -361.39108,498.3015 h 530.973 V -53.684501 h -530.973 z"
         id="path1657"
         style="stroke-width:0.999998" /></clipPath><clipPath
       clipPathUnits="userSpaceOnUse"
       id="clipPath1661"><path
         d="M -318.2573,496.99971 H 212.71571 V -54.986283 H -318.2573 Z"
         id="path1663"
         style="stroke-width:0.999998" /></clipPath><clipPath
       clipPathUnits="userSpaceOnUse"
       id="clipPath1667"><path
         d="M -354.45451,486.86489 H 176.5185 V -65.121105 h -530.97301 z"
         id="path1669"
         style="stroke-width:0.999998" /></clipPath><clipPath
       clipPathUnits="userSpaceOnUse"
       id="clipPath1673"><path
         d="m -363.29239,496.09929 h 530.973 V -55.886709 h -530.973 z"
         id="path1675"
         style="stroke-width:0.999998" /></clipPath><clipPath
       clipPathUnits="userSpaceOnUse"
       id="clipPath1679"><path
         d="m -165.7832,499.19109 h 530.973 V -52.794904 h -530.973 z"
         id="path1681"
         style="stroke-width:0.999998" /></clipPath><clipPath
       clipPathUnits="userSpaceOnUse"
       id="clipPath1685"><path
         d="M -154.07711,502.30441 H 376.8959 V -49.681584 h -530.97301 z"
         id="path1687"
         style="stroke-width:0.999998" /></clipPath><clipPath
       clipPathUnits="userSpaceOnUse"
       id="clipPath1691"><path
         d="m -379.1928,498.8591 h 530.973 V -53.126897 h -530.973 z"
         id="path1693"
         style="stroke-width:0.999998" /></clipPath><clipPath
       clipPathUnits="userSpaceOnUse"
       id="clipPath1697"><path
         d="m -224.8979,189.9909 h 530.97301 v -551.986 H -224.8979 Z"
         id="path1699"
         style="stroke-width:0.999998" /></clipPath><clipPath
       clipPathUnits="userSpaceOnUse"
       id="clipPath1703"><path
         d="m -133.2758,204.5065 h 530.97301 v -551.986 H -133.2758 Z"
         id="path1705"
         style="stroke-width:0.999998" /></clipPath><clipPath
       clipPathUnits="userSpaceOnUse"
       id="clipPath1709"><path
         d="M -325.68209,156.652 H 205.29092 V -395.334 H -325.68209 Z"
         id="path1711"
         style="stroke-width:0.999998" /></clipPath><clipPath
       clipPathUnits="userSpaceOnUse"
       id="clipPath1715"><path
         d="m -317.9204,151.3405 h 530.973 v -551.986 h -530.973 z"
         id="path1717"
         style="stroke-width:0.999998" /></clipPath><clipPath
       clipPathUnits="userSpaceOnUse"
       id="clipPath1721"><path
         d="m -106.9238,224.2106 h 530.97301 v -551.986 H -106.9238 Z"
         id="path1723"
         style="stroke-width:0.999998" /></clipPath><clipPath
       clipPathUnits="userSpaceOnUse"
       id="clipPath1727"><path
         d="m -313.0932,145.1345 h 530.97301 v -551.986 H -313.0932 Z"
         id="path1729"
         style="stroke-width:0.999998" /></clipPath><clipPath
       clipPathUnits="userSpaceOnUse"
       id="clipPath1733"><path
         d="M -315.5395,147.863 H 215.43351 V -404.123 H -315.5395 Z"
         id="path1735"
         style="stroke-width:0.999998" /></clipPath><clipPath
       clipPathUnits="userSpaceOnUse"
       id="clipPath1739"><path
         d="m -113.8417,220.1003 h 530.97301 v -551.986 H -113.8417 Z"
         id="path1741"
         style="stroke-width:0.999998" /></clipPath><clipPath
       clipPathUnits="userSpaceOnUse"
       id="clipPath1745"><path
         d="m -137.5537,205.7009 h 530.973 v -551.986 h -530.973 z"
         id="path1747"
         style="stroke-width:0.999998" /></clipPath><clipPath
       clipPathUnits="userSpaceOnUse"
       id="clipPath1751"><path
         d="m -101.854,220.9997 h 530.97301 v -551.986 H -101.854 Z"
         id="path1753"
         style="stroke-width:0.999998" /></clipPath><clipPath
       clipPathUnits="userSpaceOnUse"
       id="clipPath1757"><path
         d="m -122.7333,226.3044 h 530.97301 v -551.986 H -122.7333 Z"
         id="path1759"
         style="stroke-width:0.999998" /></clipPath><clipPath
       clipPathUnits="userSpaceOnUse"
       id="clipPath1763"><path
         d="m -330.62449,157.0134 h 530.973 v -551.986 h -530.973 z"
         id="path1765"
         style="stroke-width:0.999998" /></clipPath><clipPath
       clipPathUnits="userSpaceOnUse"
       id="clipPath1769"><path
         d="M -152.60831,107.4406 H 378.3647 v -551.986 h -530.97301 z"
         id="path1771"
         style="stroke-width:0.999998" /></clipPath><clipPath
       clipPathUnits="userSpaceOnUse"
       id="clipPath1775"><path
         d="m -224.8979,54.9978 h 530.97301 v -551.986 H -224.8979 Z"
         id="path1777"
         style="stroke-width:0.999998" /></clipPath><clipPath
       clipPathUnits="userSpaceOnUse"
       id="clipPath1781"><path
         d="m -150.16549,208.9099 h 530.973 v -551.986 h -530.973 z"
         id="path1783"
         style="stroke-width:0.999998" /></clipPath><clipPath
       clipPathUnits="userSpaceOnUse"
       id="clipPath1787"><path
         d="M -350.6088,58.431301 H 180.36421 V -493.5547 H -350.6088 Z"
         id="path1789"
         style="stroke-width:0.999998" /></clipPath><clipPath
       clipPathUnits="userSpaceOnUse"
       id="clipPath1793"><path
         d="m -321.18209,154.7009 h 530.97301 v -551.986 h -530.97301 z"
         id="path1795"
         style="stroke-width:0.999998" /></clipPath><clipPath
       clipPathUnits="userSpaceOnUse"
       id="clipPath1799"><path
         d="M -335.22311,156.2311 H 195.7499 v -551.986 h -530.97301 z"
         id="path1801"
         style="stroke-width:0.999998" /></clipPath><clipPath
       clipPathUnits="userSpaceOnUse"
       id="clipPath1805"><path
         d="M -224.8979,52.497801 H 306.07511 V -499.4882 H -224.8979 Z"
         id="path1807"
         style="stroke-width:0.999998" /></clipPath><clipPath
       clipPathUnits="userSpaceOnUse"
       id="clipPath1811"><path
         d="m -350.6088,334.43131 h 530.97301 v -551.986 H -350.6088 Z"
         id="path1813"
         style="stroke-width:0.999998" /></clipPath><clipPath
       clipPathUnits="userSpaceOnUse"
       id="clipPath1817"><path
         d="M -354.45451,210.8649 H 176.5185 v -551.986 h -530.97301 z"
         id="path1819"
         style="stroke-width:0.999998" /></clipPath><clipPath
       clipPathUnits="userSpaceOnUse"
       id="clipPath1823"><path
         d="m -128.8295,221.8825 h 530.97301 v -551.986 H -128.8295 Z"
         id="path1825"
         style="stroke-width:0.999998" /></clipPath><clipPath
       clipPathUnits="userSpaceOnUse"
       id="clipPath1829"><path
         d="M -313.0932,421.1345 H 217.87981 V -130.85149 H -313.0932 Z"
         id="path1831"
         style="stroke-width:0.999998" /></clipPath><clipPath
       clipPathUnits="userSpaceOnUse"
       id="clipPath1835"><path
         d="m -344.3334,208.9099 h 530.973 v -551.986 h -530.973 z"
         id="path1837"
         style="stroke-width:0.999998" /></clipPath><clipPath
       clipPathUnits="userSpaceOnUse"
       id="clipPath1841"><path
         d="m -339.13619,226.3034 h 530.973 v -551.986 h -530.973 z"
         id="path1843"
         style="stroke-width:0.999998" /></clipPath><clipPath
       clipPathUnits="userSpaceOnUse"
       id="clipPath1847"><path
         d="M -335.63331,203.3356 H 195.3397 v -551.986 h -530.97301 z"
         id="path1849"
         style="stroke-width:0.999998" /></clipPath><clipPath
       clipPathUnits="userSpaceOnUse"
       id="clipPath1853"><path
         d="M -154.07711,226.3044 H 376.8959 v -551.986 h -530.97301 z"
         id="path1855"
         style="stroke-width:0.999998" /></clipPath><clipPath
       clipPathUnits="userSpaceOnUse"
       id="clipPath1859"><path
         d="m -178.23291,220.1003 h 530.973 v -551.986 h -530.973 z"
         id="path1861"
         style="stroke-width:0.999998" /></clipPath><clipPath
       clipPathUnits="userSpaceOnUse"
       id="clipPath1865"><path
         d="m -140.21719,220.1003 h 530.973 v -551.986 h -530.973 z"
         id="path1867"
         style="stroke-width:0.999998" /></clipPath><clipPath
       clipPathUnits="userSpaceOnUse"
       id="clipPath1871"><path
         d="m -176.33149,222.3024 h 530.97301 v -551.986 h -530.97301 z"
         id="path1873"
         style="stroke-width:0.999998" /></clipPath><clipPath
       clipPathUnits="userSpaceOnUse"
       id="clipPath1877"><path
         d="m -348.3647,205.6989 h 530.97301 v -551.986 H -348.3647 Z"
         id="path1879"
         style="stroke-width:0.999998" /></clipPath><clipPath
       clipPathUnits="userSpaceOnUse"
       id="clipPath1883"><path
         d="m -158.15718,219.6091 h 530.973 v -551.986 h -530.973 z"
         id="path1885"
         style="stroke-width:0.999998" /></clipPath><clipPath
       clipPathUnits="userSpaceOnUse"
       id="clipPath1889"><path
         d="m -365.35689,205.6989 h 530.973 v -551.986 h -530.973 z"
         id="path1891"
         style="stroke-width:0.999998" /></clipPath><clipPath
       clipPathUnits="userSpaceOnUse"
       id="clipPath1895"><path
         d="m -318.2573,220.9997 h 530.97301 v -551.986 H -318.2573 Z"
         id="path1897"
         style="stroke-width:0.999998" /></clipPath><clipPath
       clipPathUnits="userSpaceOnUse"
       id="clipPath1901"><path
         d="m -362.13419,207.5231 h 530.97301 v -551.986 h -530.97301 z"
         id="path1903"
         style="stroke-width:0.999998" /></clipPath><clipPath
       clipPathUnits="userSpaceOnUse"
       id="clipPath1907"><path
         d="m -330.24561,220.0993 h 530.973 v -551.986 h -530.973 z"
         id="path1909"
         style="stroke-width:0.999998" /></clipPath><clipPath
       clipPathUnits="userSpaceOnUse"
       id="clipPath1913"><path
         d="m -361.39108,222.3015 h 530.973 v -551.986 h -530.973 z"
         id="path1915"
         style="stroke-width:0.999998" /></clipPath><clipPath
       clipPathUnits="userSpaceOnUse"
       id="clipPath1919"><path
         d="m -323.3276,224.2087 h 530.973 v -551.986 h -530.973 z"
         id="path1921"
         style="stroke-width:0.999998" /></clipPath><clipPath
       clipPathUnits="userSpaceOnUse"
       id="clipPath1925"><path
         d="m -363.29239,220.0993 h 530.973 v -551.986 h -530.973 z"
         id="path1927"
         style="stroke-width:0.999998" /></clipPath><clipPath
       clipPathUnits="userSpaceOnUse"
       id="clipPath1931"><path
         d="m -138.31591,222.3024 h 530.973 v -551.986 h -530.973 z"
         id="path1933"
         style="stroke-width:0.999998" /></clipPath><clipPath
       clipPathUnits="userSpaceOnUse"
       id="clipPath1937"><path
         d="m -350.8432,223.1892 h 530.97301 v -551.986 H -350.8432 Z"
         id="path1939"
         style="stroke-width:0.999998" /></clipPath><clipPath
       clipPathUnits="userSpaceOnUse"
       id="clipPath1943"><path
         d="m -379.1928,222.8591 h 530.973 v -551.986 h -530.973 z"
         id="path1945"
         style="stroke-width:0.999998" /></clipPath><clipPath
       clipPathUnits="userSpaceOnUse"
       id="clipPath1949"><path
         d="M -343.21721,219.6071 H 187.7558 v -551.986 h -530.97301 z"
         id="path1951"
         style="stroke-width:0.999998" /></clipPath><clipPath
       clipPathUnits="userSpaceOnUse"
       id="clipPath1955"><path
         d="m -165.7832,223.1911 h 530.973 v -551.986 h -530.973 z"
         id="path1957"
         style="stroke-width:0.999998" /></clipPath><clipPath
       clipPathUnits="userSpaceOnUse"
       id="clipPath1961"><path
         d="M -152.60831,383.44061 H 378.3647 v -551.986 h -530.97301 z"
         id="path1963"
         style="stroke-width:0.999998" /></clipPath><clipPath
       clipPathUnits="userSpaceOnUse"
       id="clipPath1967"><path
         d="M -101.854,496.99971 H 429.11901 V -54.986283 H -101.854 Z"
         id="path1969"
         style="stroke-width:0.999998" /></clipPath><clipPath
       clipPathUnits="userSpaceOnUse"
       id="clipPath1973"><path
         d="m -325.68209,432.65201 h 530.97301 v -551.986 h -530.97301 z"
         id="path1975"
         style="stroke-width:0.999998" /></clipPath><clipPath
       clipPathUnits="userSpaceOnUse"
       id="clipPath1979"><path
         d="m -330.62449,433.0134 h 530.973 v -551.986 h -530.973 z"
         id="path1981"
         style="stroke-width:0.999998" /></clipPath><clipPath
       clipPathUnits="userSpaceOnUse"
       id="clipPath1985"><path
         d="M -335.22311,432.23109 H 195.7499 V -119.7549 h -530.97301 z"
         id="path1987"
         style="stroke-width:0.999998" /></clipPath><clipPath
       clipPathUnits="userSpaceOnUse"
       id="clipPath1991"><path
         d="m -321.18209,430.7009 h 530.97301 v -551.986 h -530.97301 z"
         id="path1993"
         style="stroke-width:0.999998" /></clipPath><clipPath
       clipPathUnits="userSpaceOnUse"
       id="clipPath1997"><path
         d="M -224.8979,328.4978 H 306.07511 V -223.48819 H -224.8979 Z"
         id="path1999"
         style="stroke-width:0.999998" /></clipPath><clipPath
       clipPathUnits="userSpaceOnUse"
       id="clipPath2003"><path
         d="m -317.9204,427.34051 h 530.973 v -551.986 h -530.973 z"
         id="path2005"
         style="stroke-width:0.999998" /></clipPath><clipPath
       clipPathUnits="userSpaceOnUse"
       id="clipPath2009"><path
         d="M -315.5395,423.86299 H 215.43351 V -128.123 H -315.5395 Z"
         id="path2011"
         style="stroke-width:0.999998" /></clipPath><clipPath
       clipPathUnits="userSpaceOnUse"
       id="clipPath2015"><path
         d="m -224.8979,330.99779 h 530.97301 v -551.986 H -224.8979 Z"
         id="path2017"
         style="stroke-width:0.999998" /></clipPath><clipPath
       clipPathUnits="userSpaceOnUse"
       id="clipPath2021"><path
         d="M -224.8979,465.9909 H 306.07511 V -85.995096 H -224.8979 Z"
         id="path2023"
         style="stroke-width:0.999998" /></clipPath><clipPath
       clipPathUnits="userSpaceOnUse"
       id="clipPath2027"><path
         d="M -133.2758,480.5065 H 397.69721 V -71.479499 H -133.2758 Z"
         id="path2029"
         style="stroke-width:0.999998" /></clipPath><clipPath
       clipPathUnits="userSpaceOnUse"
       id="clipPath2033"><path
         d="m -137.5537,481.7009 h 530.973 V -70.285093 h -530.973 z"
         id="path2035"
         style="stroke-width:0.999998" /></clipPath><clipPath
       clipPathUnits="userSpaceOnUse"
       id="clipPath2039"><path
         d="m -150.16549,484.90989 h 530.973 V -67.076104 h -530.973 z"
         id="path2041"
         style="stroke-width:0.999998" /></clipPath><clipPath
       clipPathUnits="userSpaceOnUse"
       id="clipPath1961-2"><path
         d="M -152.60831,383.44061 H 378.3647 v -551.986 h -530.97301 z"
         id="path1963-4"
         style="stroke-width:0.999998" /></clipPath></defs><g
     inkscape:label="Lager 1"
     inkscape:groupmode="layer"
     id="layer1"
     transform="translate(-96.911756,-135.1536)" /><path
     d="m 0,0 c -8.995,0 -16.288,-7.293 -16.288,-16.29 0,-7.197 4.667,-13.302 11.14,-15.457 0.815,-0.149 1.112,0.354 1.112,0.786 0,0.386 -0.014,1.411 -0.022,2.77 -4.531,-0.984 -5.487,2.184 -5.487,2.184 -0.741,1.882 -1.809,2.383 -1.809,2.383 -1.479,1.01 0.112,0.99 0.112,0.99 1.635,-0.115 2.495,-1.679 2.495,-1.679 1.453,-2.489 3.813,-1.77 4.741,-1.353 0.148,1.052 0.568,1.77 1.034,2.177 -3.617,0.411 -7.42,1.809 -7.42,8.051 0,1.778 0.635,3.232 1.677,4.371 -0.168,0.412 -0.727,2.068 0.159,4.311 0,0 1.368,0.438 4.48,-1.67 1.299,0.362 2.693,0.542 4.078,0.548 1.383,-0.006 2.777,-0.186 4.078,-0.548 3.11,2.108 4.475,1.67 4.475,1.67 0.889,-2.243 0.33,-3.899 0.162,-4.311 1.044,-1.139 1.675,-2.593 1.675,-4.371 0,-6.258 -3.809,-7.635 -7.438,-8.038 0.585,-0.503 1.106,-1.497 1.106,-3.017 0,-2.177 -0.02,-3.934 -0.02,-4.468 0,-0.436 0.293,-0.943 1.12,-0.784 6.468,2.159 11.131,8.26 11.131,15.455 C 16.291,-7.293 8.997,0 0,0"
     style="fill:#ffffff;fill-opacity:1;fill-rule:evenodd;stroke:none"
     id="path378"
     transform="matrix(0.98222782,0,0,-1.0070853,15.998527,0)"
     clip-path="url(#clipPath1961-2)" /></svg>
