<?xml version="1.0" standalone="no"?>
<!DOCTYPE svg PUBLIC "-//W3C//DTD SVG 20010904//EN"
 "http://www.w3.org/TR/2001/REC-SVG-20010904/DTD/svg10.dtd">
<svg version="1.0" xmlns="http://www.w3.org/2000/svg"
 width="700.000000pt" height="700.000000pt" viewBox="0 0 700.000000 700.000000"
 preserveAspectRatio="xMidYMid meet">
<metadata>
Created by potrace 1.14, written by Peter Selinger 2001-2017
</metadata>
<g transform="translate(0.000000,700.000000) scale(0.100000,-0.100000)"
fill="#000000" stroke="none">
<path d="M1080 6123 c-181 -28 -355 -154 -434 -315 -69 -138 -65 -44 -66
-1728 0 -1680 -3 -1584 63 -1719 43 -90 168 -216 257 -259 82 -40 180 -65 236
-60 24 2 44 1 44 -2 0 -6 99 -2 118 5 6 2 12 1 12 -3 0 -10 234 -7 250 3 7 5
11 4 7 -1 -4 -8 127 -11 158 -4 6 1 15 1 20 0 30 -6 264 -4 283 2 13 5 21 5
19 0 -6 -9 196 -7 212 2 6 4 11 4 11 -1 0 -10 233 -8 250 2 7 5 11 4 7 -1 -4
-8 127 -11 158 -4 6 1 15 1 20 0 6 -1 54 -2 108 -2 l97 1 0 -289 0 -289 -177
0 c-98 0 -229 0 -290 0 l-113 -1 0 -295 0 -295 1170 0 1170 0 0 295 0 295 -72
1 c-40 0 -171 0 -290 0 l-218 0 0 289 0 289 39 -1 c22 0 44 3 50 6 6 4 11 4
11 -1 0 -10 233 -8 250 2 7 5 11 4 7 -1 -4 -8 127 -11 158 -4 6 1 15 1 20 0
30 -6 264 -4 283 2 13 5 21 5 19 0 -6 -9 196 -7 212 2 6 4 11 4 11 -1 0 -10
233 -8 250 2 7 5 11 4 7 -1 -4 -8 127 -11 158 -4 6 1 15 1 20 0 22 -4 244 -2
310 3 236 19 454 210 509 447 14 57 16 260 15 1600 0 1433 -1 1539 -18 1600
-43 162 -164 307 -313 379 -46 22 -99 43 -118 48 -34 7 -4841 14 -4890 6z
m4750 -2038 l0 -1455 -2330 0 -2330 0 0 1454 0 1455 2330 0 2330 0 0 -1454z"/>
</g>
</svg>
