<?xml version="1.0" encoding="UTF-8" standalone="no"?>
<svg
   height="24"
   viewBox="0 -960 960 960"
   width="24"
   version="1.1"
   id="svg4"
   sodipodi:docname="faces.svg"
   inkscape:version="1.2.2 (732a01da63, 2022-12-09)"
   xmlns:inkscape="http://www.inkscape.org/namespaces/inkscape"
   xmlns:sodipodi="http://sodipodi.sourceforge.net/DTD/sodipodi-0.dtd"
   xmlns="http://www.w3.org/2000/svg"
   xmlns:svg="http://www.w3.org/2000/svg">
  <defs
     id="defs8" />
  <sodipodi:namedview
     id="namedview6"
     pagecolor="#ffffff"
     bordercolor="#000000"
     borderopacity="0.25"
     inkscape:showpageshadow="2"
     inkscape:pageopacity="0.0"
     inkscape:pagecheckerboard="0"
     inkscape:deskcolor="#d1d1d1"
     showgrid="false"
     inkscape:zoom="33.5"
     inkscape:cx="8.0447761"
     inkscape:cy="12.014925"
     inkscape:window-width="1920"
     inkscape:window-height="991"
     inkscape:window-x="-9"
     inkscape:window-y="-9"
     inkscape:window-maximized="1"
     inkscape:current-layer="svg4" />
  <path
     d="M760-660q17 0 28.5-11.5T800-700q0-17-11.5-28.5T760-740q-17 0-28.5 11.5T720-700q0 17 11.5 28.5T760-660Zm-160 0q17 0 28.5-11.5T640-700q0-17-11.5-28.5T600-740q-17 0-28.5 11.5T560-700q0 17 11.5 28.5T600-660Zm-20 136h200q0-35-30.5-55.5T680-600q-39 0-69.5 20.5T580-524ZM280-80q-100 0-170-70T40-320v-280h480v280q0 100-70 170T280-80Zm0-80q66 0 113-47t47-113v-200H120v200q0 66 47 113t113 47Zm400-200q-26 0-51.5-5.5T580-382v-94q22 17 47.5 26.5T680-440q66 0 113-47t47-113v-200H520v140h-80v-220h480v280q0 100-70 170t-170 70Zm-480-20q17 0 28.5-11.5T240-420q0-17-11.5-28.5T200-460q-17 0-28.5 11.5T160-420q0 17 11.5 28.5T200-380Zm160 0q17 0 28.5-11.5T400-420q0-17-11.5-28.5T360-460q-17 0-28.5 11.5T320-420q0 17 11.5 28.5T360-380Zm-80 136q39 0 69.5-20.5T380-320H180q0 35 30.5 55.5T280-244Zm0-96Zm400-280Z"
     id="path2"
     style="fill:#ffffff" />
</svg>
